# MagicaVoxel @ ephtracy

# material
mtllib Crystal.mtl
usemtl palette

# normals
vn -1 0 0
vn 1 0 0
vn 0 0 1
vn 0 0 -1
vn 0 -1 0
vn 0 1 0

# texcoords
vt 0.974609 0.5
vt 0.978516 0.5
vt 0.982422 0.5
vt 0.986328 0.5

# verts
v -8 0 7
v -8 0 6
v -8 0 5
v -8 0 4
v -8 0 1
v -8 0 -1
v -8 0 -4
v -8 0 -5
v -8 0 -6
v -8 0 -7
v -8 1 7
v -8 1 6
v -8 1 5
v -8 1 4
v -8 1 1
v -8 1 -0
v -8 1 -1
v -8 1 -4
v -8 1 -5
v -8 1 -6
v -8 1 -7
v -8 2 7
v -8 2 6
v -8 2 -0
v -8 2 -1
v -8 2 -6
v -8 2 -7
v -6 0 -2
v -6 0 -3
v -6 1 -2
v -6 1 -3
v -6 2 -2
v -6 2 -3
v -5 0 8
v -5 0 7
v -5 0 6
v -5 0 4
v -5 0 3
v -5 0 2
v -5 0 1
v -5 0 -0
v -5 0 -1
v -5 0 -6
v -5 0 -8
v -5 1 8
v -5 1 7
v -5 1 6
v -5 1 4
v -5 1 3
v -5 1 2
v -5 1 1
v -5 1 -0
v -5 1 -1
v -5 1 -6
v -5 1 -8
v -4 0 1
v -4 0 -0
v -4 0 -2
v -4 0 -3
v -4 1 1
v -4 1 -0
v -4 1 -1
v -4 1 -2
v -4 1 -3
v -4 1 -6
v -4 1 -7
v -4 2 1
v -4 2 -0
v -4 2 -1
v -4 2 -6
v -4 2 -7
v -3 0 -4
v -3 0 -5
v -3 1 -4
v -3 1 -5
v -2 0 8
v -2 0 6
v -2 0 -7
v -2 0 -8
v -2 1 8
v -2 1 7
v -2 1 6
v -2 1 -7
v -2 1 -8
v -2 2 8
v -2 2 7
v -1 0 2
v -1 0 1
v -1 0 -1
v -1 0 -2
v -1 1 2
v -1 1 1
v -1 1 -1
v -1 1 -2
v -1 2 2
v -1 2 1
v -1 3 2
v -1 3 1
v 0 0 5
v 0 0 4
v 0 0 -4
v 0 0 -5
v 0 1 5
v 0 1 4
v 0 1 -4
v 0 1 -5
v 1 0 8
v 1 0 6
v 1 0 4
v 1 0 3
v 1 0 1
v 1 0 -1
v 1 0 -3
v 1 0 -4
v 1 0 -5
v 1 0 -6
v 1 1 8
v 1 1 7
v 1 1 6
v 1 1 4
v 1 1 3
v 1 1 1
v 1 1 -1
v 1 1 -3
v 1 1 -4
v 1 1 -5
v 1 1 -6
v 1 2 8
v 1 2 7
v 1 2 6
v 3 0 4
v 3 0 2
v 3 0 -2
v 3 0 -4
v 3 1 4
v 3 1 2
v 3 1 -2
v 3 1 -3
v 3 1 -4
v 3 2 -3
v 3 2 -4
v 3 3 -3
v 3 3 -4
v 3 5 -3
v 3 5 -4
v 4 0 -7
v 4 0 -8
v 4 1 -7
v 4 1 -8
v 5 0 -5
v 5 0 -6
v 5 1 -5
v 5 1 -6
v 5 2 -5
v 5 2 -6
v 5 3 -5
v 5 3 -6
v 6 0 7
v 6 0 6
v 6 0 5
v 6 0 2
v 6 0 1
v 6 1 7
v 6 1 6
v 6 1 5
v 6 1 2
v 6 1 1
v 6 2 7
v 6 2 6
v 6 2 2
v 6 2 1
v 6 3 7
v 6 3 6
v 7 0 -1
v 7 0 -2
v 7 0 -4
v 7 0 -5
v 7 1 -1
v 7 1 -2
v 7 1 -4
v 7 1 -5
v -7 0 7
v -7 0 6
v -7 0 5
v -7 0 4
v -7 0 1
v -7 0 -1
v -7 0 -4
v -7 0 -5
v -7 0 -6
v -7 0 -7
v -7 1 7
v -7 1 6
v -7 1 5
v -7 1 4
v -7 1 1
v -7 1 -0
v -7 1 -1
v -7 1 -4
v -7 1 -5
v -7 1 -6
v -7 1 -7
v -7 2 7
v -7 2 6
v -7 2 -0
v -7 2 -1
v -7 2 -6
v -7 2 -7
v -5 0 -2
v -5 0 -3
v -5 1 -2
v -5 1 -3
v -5 2 -2
v -5 2 -3
v -4 0 8
v -4 0 7
v -4 0 6
v -4 0 2
v -4 0 1
v -4 0 -7
v -4 0 -8
v -4 1 8
v -4 1 7
v -4 1 6
v -4 1 2
v -4 1 1
v -4 1 -7
v -4 1 -8
v -3 0 4
v -3 0 3
v -3 0 1
v -3 0 -1
v -3 0 -2
v -3 0 -3
v -3 0 -6
v -3 0 -7
v -3 1 4
v -3 1 3
v -3 1 1
v -3 1 -0
v -3 1 -1
v -3 1 -2
v -3 1 -3
v -3 1 -6
v -3 1 -7
v -3 2 1
v -3 2 -0
v -3 2 -1
v -3 2 -6
v -3 2 -7
v -2 0 -4
v -2 0 -5
v -2 1 -4
v -2 1 -5
v -1 0 8
v -1 0 6
v -1 0 -7
v -1 0 -8
v -1 1 8
v -1 1 7
v -1 1 6
v -1 1 -7
v -1 1 -8
v -1 2 8
v -1 2 7
v 0 0 2
v 0 0 1
v 0 0 -1
v 0 0 -2
v 0 1 2
v 0 1 1
v 0 1 -1
v 0 1 -2
v 0 2 2
v 0 2 1
v 0 3 2
v 0 3 1
v 1 0 5
v 1 0 4
v 1 0 -4
v 1 0 -5
v 1 1 5
v 1 1 4
v 1 1 -4
v 1 1 -5
v 2 0 7
v 2 0 6
v 2 0 4
v 2 0 3
v 2 0 1
v 2 0 -1
v 2 0 -3
v 2 0 -4
v 2 0 -5
v 2 0 -6
v 2 1 8
v 2 1 7
v 2 1 6
v 2 1 4
v 2 1 3
v 2 1 1
v 2 1 -1
v 2 1 -3
v 2 1 -4
v 2 1 -5
v 2 1 -6
v 2 2 8
v 2 2 7
v 2 2 6
v 3 0 8
v 3 0 7
v 3 1 8
v 3 1 7
v 4 0 4
v 4 0 2
v 4 0 -2
v 4 0 -4
v 4 1 4
v 4 1 2
v 4 1 -2
v 4 1 -3
v 4 1 -4
v 4 2 -3
v 4 2 -4
v 4 3 -3
v 4 3 -4
v 4 5 -3
v 4 5 -4
v 5 0 -7
v 5 0 -8
v 5 1 -7
v 5 1 -8
v 6 0 -5
v 6 0 -6
v 6 1 -5
v 6 1 -6
v 6 2 -5
v 6 2 -6
v 6 3 -5
v 6 3 -6
v 7 0 7
v 7 0 6
v 7 0 5
v 7 0 2
v 7 0 1
v 7 1 7
v 7 1 6
v 7 1 5
v 7 1 2
v 7 1 1
v 7 2 7
v 7 2 6
v 7 2 2
v 7 2 1
v 7 3 7
v 7 3 6
v 8 0 -1
v 8 0 -2
v 8 0 -4
v 8 0 -5
v 8 1 -1
v 8 1 -2
v 8 1 -4
v 8 1 -5
v -5 0 8
v -5 1 8
v -4 0 8
v -4 1 8
v -2 0 8
v -2 1 8
v -2 2 8
v -1 0 8
v -1 1 8
v -1 2 8
v 1 0 8
v 1 1 8
v 1 2 8
v 2 1 8
v 2 2 8
v 3 0 8
v 3 1 8
v -8 0 7
v -8 1 7
v -8 2 7
v -7 0 7
v -7 1 7
v -7 2 7
v 6 0 7
v 6 1 7
v 6 2 7
v 6 3 7
v 7 0 7
v 7 1 7
v 7 2 7
v 7 3 7
v -8 0 5
v -8 1 5
v -7 0 5
v -7 1 5
v 0 0 5
v 0 1 5
v 1 0 5
v 1 1 5
v -5 0 4
v -5 1 4
v -3 0 4
v -3 1 4
v 1 0 4
v 1 1 4
v 2 0 4
v 2 1 4
v 3 0 4
v 3 1 4
v 4 0 4
v 4 1 4
v -5 0 2
v -5 1 2
v -4 0 2
v -4 1 2
v -1 0 2
v -1 1 2
v -1 2 2
v -1 3 2
v 0 0 2
v 0 1 2
v 0 2 2
v 0 3 2
v 6 0 2
v 6 1 2
v 6 2 2
v 7 0 2
v 7 1 2
v 7 2 2
v -8 0 1
v -8 1 1
v -7 0 1
v -7 1 1
v -4 0 1
v -4 1 1
v -4 2 1
v -3 0 1
v -3 1 1
v -3 2 1
v 1 0 1
v 1 1 1
v 2 0 1
v 2 1 1
v -8 1 -0
v -8 2 -0
v -7 1 -0
v -7 2 -0
v -5 0 -0
v -5 1 -0
v -4 0 -0
v -4 1 -0
v -1 0 -1
v -1 1 -1
v 0 0 -1
v 0 1 -1
v 7 0 -1
v 7 1 -1
v 8 0 -1
v 8 1 -1
v -6 0 -2
v -6 1 -2
v -6 2 -2
v -5 0 -2
v -5 1 -2
v -5 2 -2
v -4 0 -2
v -4 1 -2
v -3 0 -2
v -3 1 -2
v 3 0 -2
v 3 1 -2
v 4 0 -2
v 4 1 -2
v 1 0 -3
v 1 1 -3
v 2 0 -3
v 2 1 -3
v 3 1 -3
v 3 2 -3
v 3 3 -3
v 3 5 -3
v 4 1 -3
v 4 2 -3
v 4 3 -3
v 4 5 -3
v -8 0 -4
v -8 1 -4
v -7 0 -4
v -7 1 -4
v -3 0 -4
v -3 1 -4
v -2 0 -4
v -2 1 -4
v 0 0 -4
v 0 1 -4
v 1 0 -4
v 1 1 -4
v 7 0 -4
v 7 1 -4
v 8 0 -4
v 8 1 -4
v 1 0 -5
v 1 1 -5
v 2 0 -5
v 2 1 -5
v 5 0 -5
v 5 1 -5
v 5 2 -5
v 5 3 -5
v 6 0 -5
v 6 1 -5
v 6 2 -5
v 6 3 -5
v -8 0 -6
v -8 1 -6
v -8 2 -6
v -7 0 -6
v -7 1 -6
v -7 2 -6
v -5 0 -6
v -5 1 -6
v -4 1 -6
v -4 2 -6
v -3 0 -6
v -3 1 -6
v -3 2 -6
v -2 0 -7
v -2 1 -7
v -1 0 -7
v -1 1 -7
v 4 0 -7
v 4 1 -7
v 5 0 -7
v 5 1 -7
v -2 1 7
v -2 2 7
v -1 1 7
v -1 2 7
v 2 0 7
v 2 1 7
v 3 0 7
v 3 1 7
v -8 0 6
v -8 1 6
v -8 2 6
v -7 0 6
v -7 1 6
v -7 2 6
v -5 0 6
v -5 1 6
v -4 0 6
v -4 1 6
v -2 0 6
v -2 1 6
v -1 0 6
v -1 1 6
v 1 0 6
v 1 1 6
v 1 2 6
v 2 0 6
v 2 1 6
v 2 2 6
v 6 1 6
v 6 2 6
v 6 3 6
v 7 1 6
v 7 2 6
v 7 3 6
v 6 0 5
v 6 1 5
v 7 0 5
v 7 1 5
v -8 0 4
v -8 1 4
v -7 0 4
v -7 1 4
v 0 0 4
v 0 1 4
v 1 0 4
v 1 1 4
v -5 0 3
v -5 1 3
v -3 0 3
v -3 1 3
v 1 0 3
v 1 1 3
v 2 0 3
v 2 1 3
v 3 0 2
v 3 1 2
v 4 0 2
v 4 1 2
v -5 0 1
v -5 1 1
v -4 0 1
v -4 1 1
v -1 0 1
v -1 1 1
v -1 2 1
v -1 3 1
v 0 0 1
v 0 1 1
v 0 2 1
v 0 3 1
v 6 0 1
v 6 1 1
v 6 2 1
v 7 0 1
v 7 1 1
v 7 2 1
v -8 0 -1
v -8 1 -1
v -8 2 -1
v -7 0 -1
v -7 1 -1
v -7 2 -1
v -5 0 -1
v -5 1 -1
v -4 1 -1
v -4 2 -1
v -3 0 -1
v -3 1 -1
v -3 2 -1
v 1 0 -1
v 1 1 -1
v 2 0 -1
v 2 1 -1
v -1 0 -2
v -1 1 -2
v 0 0 -2
v 0 1 -2
v 7 0 -2
v 7 1 -2
v 8 0 -2
v 8 1 -2
v -6 0 -3
v -6 1 -3
v -6 2 -3
v -5 0 -3
v -5 1 -3
v -5 2 -3
v -4 0 -3
v -4 1 -3
v -3 0 -3
v -3 1 -3
v 1 0 -4
v 1 1 -4
v 2 0 -4
v 2 1 -4
v 3 0 -4
v 3 1 -4
v 3 2 -4
v 3 3 -4
v 3 5 -4
v 4 0 -4
v 4 1 -4
v 4 2 -4
v 4 3 -4
v 4 5 -4
v -8 0 -5
v -8 1 -5
v -7 0 -5
v -7 1 -5
v -3 0 -5
v -3 1 -5
v -2 0 -5
v -2 1 -5
v 0 0 -5
v 0 1 -5
v 1 0 -5
v 1 1 -5
v 7 0 -5
v 7 1 -5
v 8 0 -5
v 8 1 -5
v 1 0 -6
v 1 1 -6
v 2 0 -6
v 2 1 -6
v 5 0 -6
v 5 1 -6
v 5 2 -6
v 5 3 -6
v 6 0 -6
v 6 1 -6
v 6 2 -6
v 6 3 -6
v -8 0 -7
v -8 1 -7
v -8 2 -7
v -7 0 -7
v -7 1 -7
v -7 2 -7
v -4 0 -7
v -4 1 -7
v -4 2 -7
v -3 0 -7
v -3 1 -7
v -3 2 -7
v -5 0 -8
v -5 1 -8
v -4 0 -8
v -4 1 -8
v -2 0 -8
v -2 1 -8
v -1 0 -8
v -1 1 -8
v 4 0 -8
v 4 1 -8
v 5 0 -8
v 5 1 -8
v -5 0 8
v -4 0 8
v -2 0 8
v -1 0 8
v 1 0 8
v 3 0 8
v -8 0 7
v -7 0 7
v -5 0 7
v -4 0 7
v 2 0 7
v 3 0 7
v 6 0 7
v 7 0 7
v -8 0 6
v -7 0 6
v -5 0 6
v -4 0 6
v -2 0 6
v -1 0 6
v 1 0 6
v 2 0 6
v 6 0 6
v 7 0 6
v -8 0 5
v -7 0 5
v 0 0 5
v 1 0 5
v 6 0 5
v 7 0 5
v -8 0 4
v -7 0 4
v -5 0 4
v -3 0 4
v 0 0 4
v 1 0 4
v 2 0 4
v 3 0 4
v 4 0 4
v -5 0 3
v -3 0 3
v 1 0 3
v 2 0 3
v -5 0 2
v -4 0 2
v -1 0 2
v 0 0 2
v 3 0 2
v 4 0 2
v 6 0 2
v 7 0 2
v -8 0 1
v -7 0 1
v -5 0 1
v -4 0 1
v -3 0 1
v -1 0 1
v 0 0 1
v 1 0 1
v 2 0 1
v 6 0 1
v 7 0 1
v -5 0 -0
v -4 0 -0
v -8 0 -1
v -7 0 -1
v -5 0 -1
v -3 0 -1
v -1 0 -1
v 0 0 -1
v 1 0 -1
v 2 0 -1
v 7 0 -1
v 8 0 -1
v -6 0 -2
v -5 0 -2
v -4 0 -2
v -3 0 -2
v -1 0 -2
v 0 0 -2
v 3 0 -2
v 4 0 -2
v 7 0 -2
v 8 0 -2
v -6 0 -3
v -5 0 -3
v -4 0 -3
v -3 0 -3
v 1 0 -3
v 2 0 -3
v -8 0 -4
v -7 0 -4
v -3 0 -4
v -2 0 -4
v 0 0 -4
v 1 0 -4
v 2 0 -4
v 3 0 -4
v 4 0 -4
v 7 0 -4
v 8 0 -4
v -8 0 -5
v -7 0 -5
v -3 0 -5
v -2 0 -5
v 0 0 -5
v 1 0 -5
v 2 0 -5
v 5 0 -5
v 6 0 -5
v 7 0 -5
v 8 0 -5
v -8 0 -6
v -7 0 -6
v -5 0 -6
v -3 0 -6
v 1 0 -6
v 2 0 -6
v 5 0 -6
v 6 0 -6
v -8 0 -7
v -7 0 -7
v -4 0 -7
v -3 0 -7
v -2 0 -7
v -1 0 -7
v 4 0 -7
v 5 0 -7
v -5 0 -8
v -4 0 -8
v -2 0 -8
v -1 0 -8
v 4 0 -8
v 5 0 -8
v -5 1 8
v -4 1 8
v 2 1 8
v 3 1 8
v -5 1 7
v -4 1 7
v -2 1 7
v -1 1 7
v 2 1 7
v 3 1 7
v -5 1 6
v -4 1 6
v -2 1 6
v -1 1 6
v 6 1 6
v 7 1 6
v -8 1 5
v -7 1 5
v 0 1 5
v 1 1 5
v 6 1 5
v 7 1 5
v -8 1 4
v -7 1 4
v -5 1 4
v -3 1 4
v 0 1 4
v 1 1 4
v 2 1 4
v 3 1 4
v 4 1 4
v -5 1 3
v -3 1 3
v 1 1 3
v 2 1 3
v -5 1 2
v -4 1 2
v 3 1 2
v 4 1 2
v -8 1 1
v -7 1 1
v -5 1 1
v -4 1 1
v 1 1 1
v 2 1 1
v -8 1 -0
v -7 1 -0
v -5 1 -0
v -4 1 -0
v -5 1 -1
v -4 1 -1
v -1 1 -1
v 0 1 -1
v 1 1 -1
v 2 1 -1
v 7 1 -1
v 8 1 -1
v -4 1 -2
v -3 1 -2
v -1 1 -2
v 0 1 -2
v 3 1 -2
v 4 1 -2
v 7 1 -2
v 8 1 -2
v -4 1 -3
v -3 1 -3
v 1 1 -3
v 2 1 -3
v 3 1 -3
v 4 1 -3
v -8 1 -4
v -7 1 -4
v -3 1 -4
v -2 1 -4
v 0 1 -4
v 1 1 -4
v 2 1 -4
v 7 1 -4
v 8 1 -4
v -8 1 -5
v -7 1 -5
v -3 1 -5
v -2 1 -5
v 0 1 -5
v 1 1 -5
v 2 1 -5
v 7 1 -5
v 8 1 -5
v -5 1 -6
v -4 1 -6
v 1 1 -6
v 2 1 -6
v -4 1 -7
v -2 1 -7
v -1 1 -7
v 4 1 -7
v 5 1 -7
v -5 1 -8
v -4 1 -8
v -2 1 -8
v -1 1 -8
v 4 1 -8
v 5 1 -8
v -2 2 8
v -1 2 8
v 1 2 8
v 2 2 8
v -8 2 7
v -7 2 7
v -2 2 7
v -1 2 7
v 1 2 7
v 2 2 7
v -8 2 6
v -7 2 6
v 1 2 6
v 2 2 6
v 6 2 2
v 7 2 2
v -4 2 1
v -3 2 1
v 6 2 1
v 7 2 1
v -8 2 -0
v -7 2 -0
v -4 2 -0
v -3 2 -0
v -8 2 -1
v -7 2 -1
v -4 2 -1
v -3 2 -1
v -6 2 -2
v -5 2 -2
v -6 2 -3
v -5 2 -3
v -8 2 -6
v -7 2 -6
v -4 2 -6
v -3 2 -6
v -8 2 -7
v -7 2 -7
v -4 2 -7
v -3 2 -7
v 6 3 7
v 7 3 7
v 6 3 6
v 7 3 6
v -1 3 2
v 0 3 2
v -1 3 1
v 0 3 1
v 5 3 -5
v 6 3 -5
v 5 3 -6
v 6 3 -6
v 3 5 -3
v 4 5 -3
v 3 5 -4
v 4 5 -4

# faces
f 11/1/1 2/1/1 1/1/1
f 12/1/1 2/1/1 11/1/1
f 13/1/1 4/1/1 3/1/1
f 14/1/1 4/1/1 13/1/1
f 15/1/1 6/1/1 5/1/1
f 16/1/1 6/1/1 15/1/1
f 17/1/1 6/1/1 16/1/1
f 18/1/1 8/1/1 7/1/1
f 19/1/1 8/1/1 18/1/1
f 20/1/1 10/1/1 9/1/1
f 21/1/1 10/1/1 20/1/1
f 22/2/1 12/2/1 11/2/1
f 23/2/1 12/2/1 22/2/1
f 24/2/1 17/2/1 16/2/1
f 25/2/1 17/2/1 24/2/1
f 26/2/1 21/2/1 20/2/1
f 27/2/1 21/2/1 26/2/1
f 30/1/1 29/1/1 28/1/1
f 31/1/1 29/1/1 30/1/1
f 32/2/1 31/2/1 30/2/1
f 33/2/1 31/2/1 32/2/1
f 45/4/1 35/4/1 34/4/1
f 46/1/1 36/1/1 35/1/1
f 46/4/1 35/4/1 45/4/1
f 47/1/1 36/1/1 46/1/1
f 48/1/1 38/1/1 37/1/1
f 49/1/1 38/1/1 48/1/1
f 50/4/1 40/4/1 39/4/1
f 51/4/1 40/4/1 50/4/1
f 52/1/1 42/1/1 41/1/1
f 53/1/1 42/1/1 52/1/1
f 54/1/1 44/1/1 43/1/1
f 55/1/1 44/1/1 54/1/1
f 60/1/1 57/1/1 56/1/1
f 61/1/1 57/1/1 60/1/1
f 63/2/1 59/2/1 58/2/1
f 64/2/1 59/2/1 63/2/1
f 67/2/1 61/2/1 60/2/1
f 68/4/1 62/4/1 61/4/1
f 68/2/1 61/2/1 67/2/1
f 69/4/1 62/4/1 68/4/1
f 70/2/1 66/2/1 65/2/1
f 71/2/1 66/2/1 70/2/1
f 74/1/1 73/1/1 72/1/1
f 75/1/1 73/1/1 74/1/1
f 80/1/1 77/1/1 76/1/1
f 81/1/1 77/1/1 80/1/1
f 82/1/1 77/1/1 81/1/1
f 83/4/1 79/4/1 78/4/1
f 84/4/1 79/4/1 83/4/1
f 85/2/1 81/2/1 80/2/1
f 86/2/1 81/2/1 85/2/1
f 91/1/1 88/1/1 87/1/1
f 92/1/1 88/1/1 91/1/1
f 93/4/1 90/4/1 89/4/1
f 94/4/1 90/4/1 93/4/1
f 95/2/1 92/2/1 91/2/1
f 96/2/1 92/2/1 95/2/1
f 97/3/1 96/3/1 95/3/1
f 98/3/1 96/3/1 97/3/1
f 103/1/1 100/1/1 99/1/1
f 104/1/1 100/1/1 103/1/1
f 105/1/1 102/1/1 101/1/1
f 106/1/1 102/1/1 105/1/1
f 117/1/1 108/1/1 107/1/1
f 118/1/1 108/1/1 117/1/1
f 119/1/1 108/1/1 118/1/1
f 120/1/1 110/1/1 109/1/1
f 121/1/1 110/1/1 120/1/1
f 122/1/1 112/1/1 111/1/1
f 123/1/1 112/1/1 122/1/1
f 124/1/1 114/1/1 113/1/1
f 125/1/1 114/1/1 124/1/1
f 126/1/1 116/1/1 115/1/1
f 127/1/1 116/1/1 126/1/1
f 128/3/1 118/3/1 117/3/1
f 129/2/1 119/2/1 118/2/1
f 129/3/1 118/3/1 128/3/1
f 130/2/1 119/2/1 129/2/1
f 135/1/1 132/1/1 131/1/1
f 136/1/1 132/1/1 135/1/1
f 137/1/1 134/1/1 133/1/1
f 138/1/1 134/1/1 137/1/1
f 139/1/1 134/1/1 138/1/1
f 140/2/1 139/2/1 138/2/1
f 141/2/1 139/2/1 140/2/1
f 142/3/1 141/3/1 140/3/1
f 143/3/1 141/3/1 142/3/1
f 144/4/1 143/4/1 142/4/1
f 145/4/1 143/4/1 144/4/1
f 148/1/1 147/1/1 146/1/1
f 149/1/1 147/1/1 148/1/1
f 152/1/1 151/1/1 150/1/1
f 153/1/1 151/1/1 152/1/1
f 154/2/1 153/2/1 152/2/1
f 155/2/1 153/2/1 154/2/1
f 156/3/1 155/3/1 154/3/1
f 157/3/1 155/3/1 156/3/1
f 163/1/1 159/1/1 158/1/1
f 164/4/1 160/4/1 159/4/1
f 164/1/1 159/1/1 163/1/1
f 165/4/1 160/4/1 164/4/1
f 166/1/1 162/1/1 161/1/1
f 167/1/1 162/1/1 166/1/1
f 168/2/1 164/2/1 163/2/1
f 169/2/1 164/2/1 168/2/1
f 170/2/1 167/2/1 166/2/1
f 171/2/1 167/2/1 170/2/1
f 172/3/1 169/3/1 168/3/1
f 173/3/1 169/3/1 172/3/1
f 178/4/1 175/4/1 174/4/1
f 179/4/1 175/4/1 178/4/1
f 180/1/1 177/1/1 176/1/1
f 181/1/1 177/1/1 180/1/1
f 182/1/2 183/1/2 192/1/2
f 192/1/2 183/1/2 193/1/2
f 184/1/2 185/1/2 194/1/2
f 194/1/2 185/1/2 195/1/2
f 186/1/2 187/1/2 196/1/2
f 196/1/2 187/1/2 197/1/2
f 197/1/2 187/1/2 198/1/2
f 188/1/2 189/1/2 199/1/2
f 199/1/2 189/1/2 200/1/2
f 190/1/2 191/1/2 201/1/2
f 201/1/2 191/1/2 202/1/2
f 192/2/2 193/2/2 203/2/2
f 203/2/2 193/2/2 204/2/2
f 197/2/2 198/2/2 205/2/2
f 205/2/2 198/2/2 206/2/2
f 201/2/2 202/2/2 207/2/2
f 207/2/2 202/2/2 208/2/2
f 209/1/2 210/1/2 211/1/2
f 211/1/2 210/1/2 212/1/2
f 211/2/2 212/2/2 213/2/2
f 213/2/2 212/2/2 214/2/2
f 215/4/2 216/4/2 222/4/2
f 216/1/2 217/1/2 223/1/2
f 222/4/2 216/4/2 223/4/2
f 223/1/2 217/1/2 224/1/2
f 218/4/2 219/4/2 225/4/2
f 225/4/2 219/4/2 226/4/2
f 220/1/2 221/1/2 227/1/2
f 227/1/2 221/1/2 228/1/2
f 229/1/2 230/1/2 237/1/2
f 237/1/2 230/1/2 238/1/2
f 231/1/2 232/1/2 239/1/2
f 239/1/2 232/1/2 240/1/2
f 240/1/2 232/1/2 241/1/2
f 233/2/2 234/2/2 242/2/2
f 242/2/2 234/2/2 243/2/2
f 235/1/2 236/1/2 244/1/2
f 244/1/2 236/1/2 245/1/2
f 239/2/2 240/2/2 246/2/2
f 240/4/2 241/4/2 247/4/2
f 246/2/2 240/2/2 247/2/2
f 247/4/2 241/4/2 248/4/2
f 244/2/2 245/2/2 249/2/2
f 249/2/2 245/2/2 250/2/2
f 251/1/2 252/1/2 253/1/2
f 253/1/2 252/1/2 254/1/2
f 255/1/2 256/1/2 259/1/2
f 259/1/2 256/1/2 260/1/2
f 260/1/2 256/1/2 261/1/2
f 257/4/2 258/4/2 262/4/2
f 262/4/2 258/4/2 263/4/2
f 259/2/2 260/2/2 264/2/2
f 264/2/2 260/2/2 265/2/2
f 266/1/2 267/1/2 270/1/2
f 270/1/2 267/1/2 271/1/2
f 268/4/2 269/4/2 272/4/2
f 272/4/2 269/4/2 273/4/2
f 270/2/2 271/2/2 274/2/2
f 274/2/2 271/2/2 275/2/2
f 274/3/2 275/3/2 276/3/2
f 276/3/2 275/3/2 277/3/2
f 278/1/2 279/1/2 282/1/2
f 282/1/2 279/1/2 283/1/2
f 280/1/2 281/1/2 284/1/2
f 284/1/2 281/1/2 285/1/2
f 286/1/2 287/1/2 297/1/2
f 297/1/2 287/1/2 298/1/2
f 288/1/2 289/1/2 299/1/2
f 299/1/2 289/1/2 300/1/2
f 290/1/2 291/1/2 301/1/2
f 301/1/2 291/1/2 302/1/2
f 292/1/2 293/1/2 303/1/2
f 303/1/2 293/1/2 304/1/2
f 294/1/2 295/1/2 305/1/2
f 305/1/2 295/1/2 306/1/2
f 296/3/2 297/3/2 307/3/2
f 297/2/2 298/2/2 308/2/2
f 307/3/2 297/3/2 308/3/2
f 308/2/2 298/2/2 309/2/2
f 310/1/2 311/1/2 312/1/2
f 312/1/2 311/1/2 313/1/2
f 314/1/2 315/1/2 318/1/2
f 318/1/2 315/1/2 319/1/2
f 316/1/2 317/1/2 320/1/2
f 320/1/2 317/1/2 321/1/2
f 321/1/2 317/1/2 322/1/2
f 321/2/2 322/2/2 323/2/2
f 323/2/2 322/2/2 324/2/2
f 323/3/2 324/3/2 325/3/2
f 325/3/2 324/3/2 326/3/2
f 325/4/2 326/4/2 327/4/2
f 327/4/2 326/4/2 328/4/2
f 329/1/2 330/1/2 331/1/2
f 331/1/2 330/1/2 332/1/2
f 333/1/2 334/1/2 335/1/2
f 335/1/2 334/1/2 336/1/2
f 335/2/2 336/2/2 337/2/2
f 337/2/2 336/2/2 338/2/2
f 337/3/2 338/3/2 339/3/2
f 339/3/2 338/3/2 340/3/2
f 341/1/2 342/1/2 346/1/2
f 342/4/2 343/4/2 347/4/2
f 346/1/2 342/1/2 347/1/2
f 347/4/2 343/4/2 348/4/2
f 344/1/2 345/1/2 349/1/2
f 349/1/2 345/1/2 350/1/2
f 346/2/2 347/2/2 351/2/2
f 351/2/2 347/2/2 352/2/2
f 349/2/2 350/2/2 353/2/2
f 353/2/2 350/2/2 354/2/2
f 351/3/2 352/3/2 355/3/2
f 355/3/2 352/3/2 356/3/2
f 357/4/2 358/4/2 361/4/2
f 361/4/2 358/4/2 362/4/2
f 359/1/2 360/1/2 363/1/2
f 363/1/2 360/1/2 364/1/2
f 367/4/3 366/4/3 365/4/3
f 368/4/3 366/4/3 367/4/3
f 372/1/3 370/1/3 369/1/3
f 373/2/3 371/2/3 370/2/3
f 373/1/3 370/1/3 372/1/3
f 374/2/3 371/2/3 373/2/3
f 378/1/3 376/1/3 375/1/3
f 378/3/3 377/3/3 376/3/3
f 379/3/3 377/3/3 378/3/3
f 380/1/3 378/1/3 375/1/3
f 381/1/3 378/1/3 380/1/3
f 385/1/3 383/1/3 382/1/3
f 386/2/3 384/2/3 383/2/3
f 386/1/3 383/1/3 385/1/3
f 387/2/3 384/2/3 386/2/3
f 392/1/3 389/1/3 388/1/3
f 393/2/3 390/2/3 389/2/3
f 393/1/3 389/1/3 392/1/3
f 394/3/3 391/3/3 390/3/3
f 394/2/3 390/2/3 393/2/3
f 395/3/3 391/3/3 394/3/3
f 398/1/3 397/1/3 396/1/3
f 399/1/3 397/1/3 398/1/3
f 402/1/3 401/1/3 400/1/3
f 403/1/3 401/1/3 402/1/3
f 406/1/3 405/1/3 404/1/3
f 407/1/3 405/1/3 406/1/3
f 410/1/3 409/1/3 408/1/3
f 411/1/3 409/1/3 410/1/3
f 414/1/3 413/1/3 412/1/3
f 415/1/3 413/1/3 414/1/3
f 418/4/3 417/4/3 416/4/3
f 419/4/3 417/4/3 418/4/3
f 424/1/3 421/1/3 420/1/3
f 425/2/3 422/2/3 421/2/3
f 425/1/3 421/1/3 424/1/3
f 426/3/3 423/3/3 422/3/3
f 426/2/3 422/2/3 425/2/3
f 427/3/3 423/3/3 426/3/3
f 431/1/3 429/1/3 428/1/3
f 432/2/3 430/2/3 429/2/3
f 432/1/3 429/1/3 431/1/3
f 433/2/3 430/2/3 432/2/3
f 436/1/3 435/1/3 434/1/3
f 437/1/3 435/1/3 436/1/3
f 441/1/3 439/1/3 438/1/3
f 442/2/3 440/2/3 439/2/3
f 442/1/3 439/1/3 441/1/3
f 443/2/3 440/2/3 442/2/3
f 446/1/3 445/1/3 444/1/3
f 447/1/3 445/1/3 446/1/3
f 450/2/3 449/2/3 448/2/3
f 451/2/3 449/2/3 450/2/3
f 454/1/3 453/1/3 452/1/3
f 455/1/3 453/1/3 454/1/3
f 458/4/3 457/4/3 456/4/3
f 459/4/3 457/4/3 458/4/3
f 462/4/3 461/4/3 460/4/3
f 463/4/3 461/4/3 462/4/3
f 467/1/3 465/1/3 464/1/3
f 468/2/3 466/2/3 465/2/3
f 468/1/3 465/1/3 467/1/3
f 469/2/3 466/2/3 468/2/3
f 472/2/3 471/2/3 470/2/3
f 473/2/3 471/2/3 472/2/3
f 476/1/3 475/1/3 474/1/3
f 477/1/3 475/1/3 476/1/3
f 480/1/3 479/1/3 478/1/3
f 481/1/3 479/1/3 480/1/3
f 486/2/3 483/2/3 482/2/3
f 487/3/3 484/3/3 483/3/3
f 487/2/3 483/2/3 486/2/3
f 488/4/3 485/4/3 484/4/3
f 488/3/3 484/3/3 487/3/3
f 489/4/3 485/4/3 488/4/3
f 492/1/3 491/1/3 490/1/3
f 493/1/3 491/1/3 492/1/3
f 496/1/3 495/1/3 494/1/3
f 497/1/3 495/1/3 496/1/3
f 500/1/3 499/1/3 498/1/3
f 501/1/3 499/1/3 500/1/3
f 504/1/3 503/1/3 502/1/3
f 505/1/3 503/1/3 504/1/3
f 508/1/3 507/1/3 506/1/3
f 509/1/3 507/1/3 508/1/3
f 514/1/3 511/1/3 510/1/3
f 515/2/3 512/2/3 511/2/3
f 515/1/3 511/1/3 514/1/3
f 516/3/3 513/3/3 512/3/3
f 516/2/3 512/2/3 515/2/3
f 517/3/3 513/3/3 516/3/3
f 521/1/3 519/1/3 518/1/3
f 522/2/3 520/2/3 519/2/3
f 522/1/3 519/1/3 521/1/3
f 523/2/3 520/2/3 522/2/3
f 526/1/3 525/1/3 524/1/3
f 528/1/3 526/1/3 524/1/3
f 529/2/3 527/2/3 526/2/3
f 529/1/3 526/1/3 528/1/3
f 530/2/3 527/2/3 529/2/3
f 533/4/3 532/4/3 531/4/3
f 534/4/3 532/4/3 533/4/3
f 537/1/3 536/1/3 535/1/3
f 538/1/3 536/1/3 537/1/3
f 539/2/4 540/2/4 541/2/4
f 541/2/4 540/2/4 542/2/4
f 543/1/4 544/1/4 545/1/4
f 545/1/4 544/1/4 546/1/4
f 547/1/4 548/1/4 550/1/4
f 548/2/4 549/2/4 551/2/4
f 550/1/4 548/1/4 551/1/4
f 551/2/4 549/2/4 552/2/4
f 553/1/4 554/1/4 555/1/4
f 555/1/4 554/1/4 556/1/4
f 557/1/4 558/1/4 559/1/4
f 559/1/4 558/1/4 560/1/4
f 561/1/4 562/1/4 564/1/4
f 562/2/4 563/2/4 565/2/4
f 564/1/4 562/1/4 565/1/4
f 565/2/4 563/2/4 566/2/4
f 567/2/4 568/2/4 570/2/4
f 568/3/4 569/3/4 571/3/4
f 570/2/4 568/2/4 571/2/4
f 571/3/4 569/3/4 572/3/4
f 573/4/4 574/4/4 575/4/4
f 575/4/4 574/4/4 576/4/4
f 577/1/4 578/1/4 579/1/4
f 579/1/4 578/1/4 580/1/4
f 581/1/4 582/1/4 583/1/4
f 583/1/4 582/1/4 584/1/4
f 585/1/4 586/1/4 587/1/4
f 587/1/4 586/1/4 588/1/4
f 589/1/4 590/1/4 591/1/4
f 591/1/4 590/1/4 592/1/4
f 593/1/4 594/1/4 595/1/4
f 595/1/4 594/1/4 596/1/4
f 597/4/4 598/4/4 599/4/4
f 599/4/4 598/4/4 600/4/4
f 601/1/4 602/1/4 605/1/4
f 602/2/4 603/2/4 606/2/4
f 605/1/4 602/1/4 606/1/4
f 603/3/4 604/3/4 607/3/4
f 606/2/4 603/2/4 607/2/4
f 607/3/4 604/3/4 608/3/4
f 609/1/4 610/1/4 612/1/4
f 610/2/4 611/2/4 613/2/4
f 612/1/4 610/1/4 613/1/4
f 613/2/4 611/2/4 614/2/4
f 615/1/4 616/1/4 618/1/4
f 616/2/4 617/2/4 619/2/4
f 618/1/4 616/1/4 619/1/4
f 619/2/4 617/2/4 620/2/4
f 621/1/4 622/1/4 623/1/4
f 621/1/4 623/1/4 625/1/4
f 623/4/4 624/4/4 626/4/4
f 625/1/4 623/1/4 626/1/4
f 626/4/4 624/4/4 627/4/4
f 628/1/4 629/1/4 630/1/4
f 630/1/4 629/1/4 631/1/4
f 632/4/4 633/4/4 634/4/4
f 634/4/4 633/4/4 635/4/4
f 636/4/4 637/4/4 638/4/4
f 638/4/4 637/4/4 639/4/4
f 640/1/4 641/1/4 643/1/4
f 641/2/4 642/2/4 644/2/4
f 643/1/4 641/1/4 644/1/4
f 644/2/4 642/2/4 645/2/4
f 646/2/4 647/2/4 648/2/4
f 648/2/4 647/2/4 649/2/4
f 650/1/4 651/1/4 652/1/4
f 652/1/4 651/1/4 653/1/4
f 654/1/4 655/1/4 659/1/4
f 655/2/4 656/2/4 660/2/4
f 659/1/4 655/1/4 660/1/4
f 656/3/4 657/3/4 661/3/4
f 660/2/4 656/2/4 661/2/4
f 657/4/4 658/4/4 662/4/4
f 661/3/4 657/3/4 662/3/4
f 662/4/4 658/4/4 663/4/4
f 664/1/4 665/1/4 666/1/4
f 666/1/4 665/1/4 667/1/4
f 668/1/4 669/1/4 670/1/4
f 670/1/4 669/1/4 671/1/4
f 672/1/4 673/1/4 674/1/4
f 674/1/4 673/1/4 675/1/4
f 676/1/4 677/1/4 678/1/4
f 678/1/4 677/1/4 679/1/4
f 680/1/4 681/1/4 682/1/4
f 682/1/4 681/1/4 683/1/4
f 684/1/4 685/1/4 688/1/4
f 685/2/4 686/2/4 689/2/4
f 688/1/4 685/1/4 689/1/4
f 686/3/4 687/3/4 690/3/4
f 689/2/4 686/2/4 690/2/4
f 690/3/4 687/3/4 691/3/4
f 692/1/4 693/1/4 695/1/4
f 693/2/4 694/2/4 696/2/4
f 695/1/4 693/1/4 696/1/4
f 696/2/4 694/2/4 697/2/4
f 698/1/4 699/1/4 701/1/4
f 699/2/4 700/2/4 702/2/4
f 701/1/4 699/1/4 702/1/4
f 702/2/4 700/2/4 703/2/4
f 704/1/4 705/1/4 706/1/4
f 706/1/4 705/1/4 707/1/4
f 708/4/4 709/4/4 710/4/4
f 710/4/4 709/4/4 711/4/4
f 712/1/4 713/1/4 714/1/4
f 714/1/4 713/1/4 715/1/4
f 724/4/5 717/4/5 716/4/5
f 725/4/5 717/4/5 724/4/5
f 726/1/5 721/1/5 720/1/5
f 727/1/5 721/1/5 726/1/5
f 730/1/5 723/1/5 722/1/5
f 731/1/5 723/1/5 730/1/5
f 732/1/5 725/1/5 724/1/5
f 733/1/5 725/1/5 732/1/5
f 734/1/5 719/1/5 718/1/5
f 735/1/5 719/1/5 734/1/5
f 736/1/5 726/1/5 720/1/5
f 737/1/5 726/1/5 736/1/5
f 738/1/5 729/1/5 728/1/5
f 739/1/5 729/1/5 738/1/5
f 744/4/5 739/4/5 738/4/5
f 745/4/5 739/4/5 744/4/5
f 746/1/5 741/1/5 740/1/5
f 747/1/5 741/1/5 746/1/5
f 750/1/5 743/1/5 742/1/5
f 751/1/5 743/1/5 750/1/5
f 755/1/5 749/1/5 748/1/5
f 756/1/5 749/1/5 755/1/5
f 757/1/5 752/1/5 751/1/5
f 758/1/5 752/1/5 757/1/5
f 763/1/5 754/1/5 753/1/5
f 764/1/5 754/1/5 763/1/5
f 769/4/5 760/4/5 759/4/5
f 770/4/5 760/4/5 769/4/5
f 772/1/5 762/1/5 761/1/5
f 773/1/5 762/1/5 772/1/5
f 776/1/5 766/1/5 765/1/5
f 777/1/5 766/1/5 776/1/5
f 779/1/5 771/1/5 770/1/5
f 780/1/5 768/1/5 767/1/5
f 781/1/5 768/1/5 780/1/5
f 782/1/5 779/1/5 778/1/5
f 783/1/5 771/1/5 779/1/5
f 783/1/5 779/1/5 782/1/5
f 786/1/5 775/1/5 774/1/5
f 787/1/5 775/1/5 786/1/5
f 794/4/5 785/4/5 784/4/5
f 795/4/5 785/4/5 794/4/5
f 798/4/5 789/4/5 788/4/5
f 799/4/5 789/4/5 798/4/5
f 800/1/5 791/1/5 790/1/5
f 801/1/5 791/1/5 800/1/5
f 802/2/5 793/2/5 792/2/5
f 803/2/5 793/2/5 802/2/5
f 811/1/5 805/1/5 804/1/5
f 812/1/5 805/1/5 811/1/5
f 813/1/5 797/1/5 796/1/5
f 814/1/5 797/1/5 813/1/5
f 817/1/5 807/1/5 806/1/5
f 818/1/5 807/1/5 817/1/5
f 819/1/5 809/1/5 808/1/5
f 820/1/5 809/1/5 819/1/5
f 821/1/5 811/1/5 810/1/5
f 822/1/5 811/1/5 821/1/5
f 826/1/5 816/1/5 815/1/5
f 827/1/5 816/1/5 826/1/5
f 832/1/5 823/1/5 822/1/5
f 833/1/5 823/1/5 832/1/5
f 834/1/5 825/1/5 824/1/5
f 835/1/5 825/1/5 834/1/5
f 836/1/5 829/1/5 828/1/5
f 837/1/5 829/1/5 836/1/5
f 838/1/5 831/1/5 830/1/5
f 839/1/5 831/1/5 838/1/5
f 844/1/5 838/1/5 830/1/5
f 845/1/5 838/1/5 844/1/5
f 846/4/5 841/4/5 840/4/5
f 847/4/5 841/4/5 846/4/5
f 848/1/5 843/1/5 842/1/5
f 849/1/5 843/1/5 848/1/5
f 850/4/6 851/4/6 854/4/6
f 854/4/6 851/4/6 855/4/6
f 852/1/6 853/1/6 858/1/6
f 858/1/6 853/1/6 859/1/6
f 854/1/6 855/1/6 860/1/6
f 860/1/6 855/1/6 861/1/6
f 856/1/6 857/1/6 862/1/6
f 862/1/6 857/1/6 863/1/6
f 864/4/6 865/4/6 870/4/6
f 870/4/6 865/4/6 871/4/6
f 866/1/6 867/1/6 872/1/6
f 872/1/6 867/1/6 873/1/6
f 868/1/6 869/1/6 876/1/6
f 876/1/6 869/1/6 877/1/6
f 874/1/6 875/1/6 881/1/6
f 881/1/6 875/1/6 882/1/6
f 877/1/6 878/1/6 883/1/6
f 883/1/6 878/1/6 884/1/6
f 879/1/6 880/1/6 887/1/6
f 887/1/6 880/1/6 888/1/6
f 885/4/6 886/4/6 891/4/6
f 891/4/6 886/4/6 892/4/6
f 889/1/6 890/1/6 895/1/6
f 895/1/6 890/1/6 896/1/6
f 897/1/6 898/1/6 899/1/6
f 899/1/6 898/1/6 900/1/6
f 893/1/6 894/1/6 903/1/6
f 903/1/6 894/1/6 904/1/6
f 901/4/6 902/4/6 909/4/6
f 909/4/6 902/4/6 910/4/6
f 905/4/6 906/4/6 913/4/6
f 913/4/6 906/4/6 914/4/6
f 907/2/6 908/2/6 915/2/6
f 915/2/6 908/2/6 916/2/6
f 911/1/6 912/1/6 919/1/6
f 919/1/6 912/1/6 920/1/6
f 917/1/6 918/1/6 926/1/6
f 926/1/6 918/1/6 927/1/6
f 921/1/6 922/1/6 930/1/6
f 930/1/6 922/1/6 931/1/6
f 923/1/6 924/1/6 932/1/6
f 932/1/6 924/1/6 933/1/6
f 925/1/6 926/1/6 934/1/6
f 934/1/6 926/1/6 935/1/6
f 928/1/6 929/1/6 937/1/6
f 937/1/6 929/1/6 938/1/6
f 935/1/6 936/1/6 941/1/6
f 941/1/6 936/1/6 942/1/6
f 939/1/6 940/1/6 943/1/6
f 939/1/6 943/1/6 948/1/6
f 948/1/6 943/1/6 949/1/6
f 944/4/6 945/4/6 950/4/6
f 950/4/6 945/4/6 951/4/6
f 946/1/6 947/1/6 952/1/6
f 952/1/6 947/1/6 953/1/6
f 954/2/6 955/2/6 960/2/6
f 960/2/6 955/2/6 961/2/6
f 956/3/6 957/3/6 962/3/6
f 962/3/6 957/3/6 963/3/6
f 958/2/6 959/2/6 964/2/6
f 964/2/6 959/2/6 965/2/6
f 962/2/6 963/2/6 966/2/6
f 966/2/6 963/2/6 967/2/6
f 968/2/6 969/2/6 972/2/6
f 972/2/6 969/2/6 973/2/6
f 970/2/6 971/2/6 976/2/6
f 976/2/6 971/2/6 977/2/6
f 974/2/6 975/2/6 978/2/6
f 978/2/6 975/2/6 979/2/6
f 976/4/6 977/4/6 980/4/6
f 980/4/6 977/4/6 981/4/6
f 982/2/6 983/2/6 984/2/6
f 984/2/6 983/2/6 985/2/6
f 986/2/6 987/2/6 990/2/6
f 990/2/6 987/2/6 991/2/6
f 988/2/6 989/2/6 992/2/6
f 992/2/6 989/2/6 993/2/6
f 994/3/6 995/3/6 996/3/6
f 996/3/6 995/3/6 997/3/6
f 998/3/6 999/3/6 1000/3/6
f 1000/3/6 999/3/6 1001/3/6
f 1002/3/6 1003/3/6 1004/3/6
f 1004/3/6 1003/3/6 1005/3/6
f 1006/4/6 1007/4/6 1008/4/6
f 1008/4/6 1007/4/6 1009/4/6
